<?xml version="1.0" standalone="no"?>
<!DOCTYPE svg PUBLIC "-//W3C//DTD SVG 20010904//EN"
 "http://www.w3.org/TR/2001/REC-SVG-20010904/DTD/svg10.dtd">
<svg version="1.0" xmlns="http://www.w3.org/2000/svg"
 width="1081.000000pt" height="768.000000pt" viewBox="0 0 1081.000000 768.000000"
 preserveAspectRatio="xMidYMid meet">

<g transform="translate(0.000000,768.000000) scale(0.100000,-0.100000)"
fill="#000000" stroke="none">
<path d="M5812 7639 c-129 -17 -256 -102 -339 -228 -78 -116 -142 -306 -179
-526 -21 -125 -24 -385 -6 -470 26 -114 92 -302 103 -291 3 3 5 -3 6 -12 0 -9
17 -53 36 -97 54 -121 71 -194 70 -315 -1 -163 -39 -311 -155 -598 -81 -201
-91 -252 -92 -442 -1 -190 15 -271 85 -419 43 -93 144 -235 160 -226 5 4 8 2
7 -3 -2 -5 28 -46 67 -91 88 -104 139 -179 179 -261 28 -59 31 -74 31 -165 0
-117 -11 -144 -119 -289 -36 -49 -66 -96 -66 -106 0 -9 10 -30 22 -45 21 -27
23 -28 107 -22 103 7 332 57 449 99 339 119 661 314 893 540 97 94 238 258
222 258 -4 0 -3 4 3 8 35 24 169 260 245 432 208 472 262 1005 155 1532 -107
523 -391 990 -803 1319 -190 151 -498 311 -733 379 -86 25 -127 32 -250 44
-19 2 -64 0 -98 -5z m247 -159 c46 -11 118 -33 160 -47 96 -34 345 -158 431
-214 36 -23 70 -42 77 -42 7 0 10 -4 7 -8 -2 -4 6 -13 18 -20 12 -7 28 -17 34
-23 6 -6 31 -26 55 -45 75 -59 261 -253 328 -342 35 -46 68 -83 73 -81 5 1 7
-1 4 -6 -3 -5 24 -58 59 -117 141 -237 229 -491 277 -800 26 -169 31 -513 9
-660 -52 -354 -160 -660 -336 -950 -27 -44 -65 -102 -84 -128 -20 -27 -35 -54
-33 -60 2 -7 1 -9 -3 -5 -4 3 -29 -19 -57 -50 -110 -125 -273 -265 -418 -358
-41 -26 -78 -52 -82 -58 -4 -6 -8 -8 -8 -4 0 4 -28 -9 -62 -28 -89 -50 -257
-126 -363 -164 -96 -34 -295 -84 -302 -76 -3 3 13 42 36 88 75 155 76 275 2
433 -36 77 -123 218 -132 212 -2 -1 -3 0 -2 2 3 5 -65 87 -144 173 -107 118
-171 246 -199 398 -31 173 -10 335 67 528 140 348 172 473 172 672 0 165 -15
228 -101 421 -106 237 -126 317 -125 509 1 301 93 620 218 758 77 85 135 110
255 111 53 1 117 -7 169 -19z"/>
<path d="M5743 7210 c-52 -21 -124 -245 -142 -443 -18 -191 15 -358 112 -573
74 -163 103 -246 123 -351 30 -161 3 -361 -76 -558 -103 -256 -130 -372 -130
-557 1 -163 24 -273 86 -396 41 -81 62 -109 159 -205 126 -127 168 -183 196
-264 22 -66 44 -93 73 -93 30 0 46 13 52 41 23 98 -61 254 -226 419 -107 108
-148 177 -182 314 -17 68 -20 101 -15 216 6 160 23 232 102 431 125 314 145
547 70 798 -22 73 -54 153 -138 346 -46 104 -67 210 -67 339 0 125 17 222 65
361 19 57 35 110 35 120 0 19 -44 65 -62 64 -7 0 -23 -4 -35 -9z"/>
<path d="M4735 7630 c-86 -16 -219 -58 -321 -101 -162 -70 -403 -210 -442
-258 -7 -9 -16 -15 -20 -15 -16 3 -180 -139 -295 -256 -358 -364 -558 -777
-644 -1330 -28 -179 -25 -559 6 -740 39 -226 110 -448 206 -640 54 -107 110
-201 117 -195 2 3 5 -1 5 -8 0 -39 189 -275 342 -427 366 -364 800 -568 1245
-587 266 -11 417 56 475 211 40 106 20 240 -42 281 -13 8 -65 22 -115 29 -156
23 -199 57 -208 166 -4 50 1 90 21 175 51 218 51 215 35 225 -8 6 -11 10 -7
10 19 0 -30 60 -70 85 -67 43 -67 43 -17 125 67 112 60 139 -46 188 -65 29
-110 64 -110 83 0 6 11 25 25 43 32 42 75 157 75 202 0 42 -23 89 -50 104 -11
6 -54 15 -97 20 -99 13 -186 54 -243 116 -37 40 -42 50 -37 80 7 42 43 89 139
180 103 97 200 214 194 231 -3 8 -1 11 4 8 11 -7 88 108 171 255 73 127 76
171 23 283 l-39 82 0 150 c1 190 23 307 113 580 57 176 66 211 70 295 3 80 0
104 -18 155 -30 81 -104 154 -180 178 -65 21 -195 30 -265 17z m230 -155 c17
-7 43 -27 58 -44 57 -68 50 -163 -32 -406 -142 -423 -163 -732 -62 -920 11
-22 21 -47 21 -57 0 -19 -95 -188 -146 -261 -19 -26 -34 -50 -34 -54 0 -14
-132 -164 -232 -264 -76 -75 -115 -122 -133 -160 -28 -62 -33 -131 -11 -184
20 -46 106 -137 123 -131 8 3 11 1 8 -4 -15 -24 133 -94 224 -106 34 -4 51
-11 51 -21 0 -19 -27 -70 -59 -112 -22 -29 -26 -45 -26 -97 0 -54 4 -67 31
-101 16 -21 53 -53 81 -72 l52 -34 -31 -56 c-51 -96 -29 -175 68 -236 24 -15
44 -33 44 -39 0 -6 -12 -58 -27 -116 -20 -78 -27 -131 -27 -205 -1 -131 17
-186 83 -246 56 -51 110 -73 223 -91 l80 -13 -5 -59 c-6 -68 -27 -101 -83
-133 -65 -37 -160 -48 -314 -35 -390 32 -753 207 -1084 523 -58 55 -129 130
-157 165 -28 35 -56 61 -61 57 -7 -3 -8 -1 -4 5 4 6 -17 43 -46 81 -101 132
-207 329 -273 506 -139 372 -170 788 -90 1220 83 446 281 828 598 1148 45 45
80 86 78 92 -1 5 0 7 4 3 4 -4 46 25 94 63 316 256 714 433 931 412 30 -3 69
-11 85 -18z"/>
<path d="M2200 2730 c0 -102 -27 -256 -58 -333 -19 -48 -18 -48 95 -72 l86
-18 19 24 c10 13 39 65 63 114 52 105 84 256 71 338 l-7 47 -135 0 -134 0 0
-100z"/>
<path d="M3080 2705 c-231 -52 -409 -227 -471 -462 -29 -109 -29 -306 0 -416
67 -255 259 -425 516 -456 l50 -6 3 -87 3 -87 -83 -3 -83 -3 0 -85 0 -85 82
-3 82 -3 3 -132 3 -132 88 -3 87 -3 0 136 0 135 85 0 86 0 -3 88 -3 87 -82 3
-83 3 0 89 0 90 44 0 c50 0 174 22 253 45 l53 16 0 319 0 320 -150 0 -150 0
-2 -227 -3 -228 -125 0 c-115 0 -130 2 -182 27 -103 48 -166 135 -194 267 -38
179 4 371 101 465 72 71 134 90 285 90 115 1 132 -2 219 -32 52 -18 95 -31 96
-30 6 8 75 206 75 215 0 15 -81 51 -166 74 -105 28 -340 35 -434 14z"/>
<path d="M1060 2704 c-30 -2 -99 -9 -153 -15 l-97 -11 0 -638 c1 -597 2 -639
18 -639 9 0 40 -5 67 -10 28 -6 124 -13 215 -17 170 -7 280 2 396 31 109 28
293 132 278 157 -4 6 -3 8 4 4 25 -15 118 132 153 244 21 66 24 94 24 240 -1
154 -2 170 -28 243 -77 219 -225 340 -482 393 -72 14 -296 25 -395 18z m328
-259 c117 -28 191 -84 236 -180 52 -108 58 -278 16 -399 -58 -170 -191 -246
-430 -246 l-100 0 -2 416 c-2 229 -1 418 1 420 11 10 223 2 279 -11z"/>
<path d="M4260 2382 c-153 -51 -268 -173 -316 -337 -27 -90 -25 -259 4 -351
52 -169 178 -281 359 -319 120 -26 308 -15 437 25 l63 20 -19 107 c-11 60 -21
109 -22 111 -2 1 -30 -5 -62 -14 -92 -25 -270 -30 -336 -9 -76 23 -137 83
-152 148 l-6 27 323 0 324 0 6 53 c6 50 -4 180 -19 243 -3 16 -23 60 -42 98
-43 82 -122 153 -209 187 -81 31 -254 37 -333 11z m240 -227 c48 -25 90 -94
90 -150 l0 -25 -190 0 -190 0 6 28 c19 84 76 149 143 163 43 9 107 1 141 -16z"/>
<path d="M5330 2388 c-41 -5 -111 -16 -155 -26 l-80 -17 -3 -478 -2 -477 140
0 140 0 2 383 3 382 93 3 c197 6 212 -27 212 -485 l0 -283 140 0 140 0 0 308
c-1 331 -9 419 -51 506 -27 58 -86 119 -142 148 -85 43 -259 58 -437 36z"/>
<path d="M6529 2385 c-167 -46 -297 -185 -339 -365 -26 -107 -5 -357 30 -368
5 -2 7 -8 4 -13 -7 -12 46 -96 84 -135 42 -42 123 -91 193 -115 54 -19 85 -23
204 -23 145 -1 287 20 331 49 21 14 21 14 4 114 -9 56 -19 104 -22 107 -4 3
-30 -2 -60 -11 -80 -25 -281 -32 -338 -11 -25 9 -49 18 -55 19 -26 6 -84 83
-99 135 l-7 22 325 0 325 0 7 48 c10 70 -11 230 -42 307 -46 115 -145 201
-273 239 -65 19 -206 20 -272 1z m216 -227 c55 -28 81 -68 99 -150 l6 -28
-194 0 -194 0 8 33 c16 68 37 102 83 132 53 34 138 40 192 13z"/>
<path d="M7623 2391 c-33 -4 -111 -21 -172 -36 l-111 -29 0 -468 0 -468 140 0
140 0 0 375 0 375 26 10 c36 14 168 12 242 -4 34 -7 62 -12 62 -10 0 2 9 51
21 110 11 59 16 111 12 115 -24 24 -253 43 -360 30z"/>
<path d="M9490 2384 c-157 -42 -234 -137 -234 -289 0 -156 66 -230 276 -309
102 -38 168 -75 180 -101 15 -34 2 -74 -30 -87 -48 -20 -217 -12 -317 16 -49
13 -91 23 -92 22 -10 -9 -43 -210 -36 -216 20 -20 166 -51 268 -57 241 -13
420 55 469 178 20 49 34 165 19 156 -6 -4 -8 3 -6 18 18 90 -89 192 -276 262
-162 61 -192 86 -177 149 14 55 142 70 289 35 42 -10 79 -16 81 -12 9 15 48
202 43 207 -2 3 -47 14 -98 24 -113 24 -279 25 -359 4z"/>
<path d="M8144 2365 c-4 -8 -4 -160 -1 -338 3 -234 9 -337 19 -377 58 -222
223 -308 536 -281 118 11 205 24 275 42 l37 10 0 479 0 480 -140 0 -140 0 0
-385 0 -384 -35 -7 c-67 -12 -168 0 -202 24 -57 40 -63 83 -63 439 l0 313
-140 0 c-116 0 -142 -3 -146 -15z"/>
<path d="M6022 1085 c-44 -49 -40 -63 8 -25 22 17 40 38 40 46 0 22 -13 17
-48 -21z"/>
<path d="M6460 948 c0 -169 9 -223 35 -223 6 0 16 -4 23 -8 8 -5 12 -3 12 8 0
9 -4 14 -9 10 -23 -14 -31 41 -31 209 0 150 -2 176 -15 176 -13 0 -15 -26 -15
-172z"/>
<path d="M7520 1045 c0 -72 -1 -75 -19 -65 -45 23 -151 -1 -151 -34 0 -8 -5
-16 -12 -18 -6 -2 -13 -30 -16 -64 -3 -50 0 -64 20 -94 32 -47 89 -67 155 -54
l48 9 3 198 c2 171 0 197 -13 197 -12 0 -15 -15 -15 -75z m-26 -85 c26 -9 26
-11 26 -115 l0 -105 -59 0 c-40 0 -63 5 -71 15 -7 8 -16 13 -19 10 -10 -5 -13
16 -15 93 -1 58 1 66 27 88 30 25 69 30 111 14z"/>
<path d="M9300 1045 c0 -72 -1 -75 -19 -65 -30 15 -89 12 -122 -7 -30 -18 -59
-76 -59 -120 0 -15 9 -46 21 -69 27 -56 86 -82 157 -68 l47 9 3 198 c2 171 0
197 -13 197 -12 0 -15 -15 -15 -75z m-26 -84 c26 -10 26 -11 26 -116 l0 -105
-55 0 c-46 0 -60 4 -80 24 -13 13 -27 36 -31 50 -10 41 5 114 27 129 10 8 17
16 14 18 -9 10 73 9 99 0z"/>
<path d="M5530 900 c0 -155 2 -180 15 -180 13 0 15 23 15 158 l1 157 25 -30
c14 -16 48 -63 76 -102 28 -40 54 -73 59 -73 5 0 8 -3 7 -7 -5 -13 56 -103 70
-103 9 0 12 43 12 180 0 152 -2 180 -15 180 -12 0 -15 -26 -17 -152 l-3 -151
-29 44 c-98 149 -184 259 -202 259 -10 0 -13 -45 -14 -180z"/>
<path d="M8070 900 l0 -180 110 0 c67 0 110 4 110 10 0 6 -38 10 -95 10 l-95
0 0 80 0 80 80 0 c47 0 80 4 80 10 0 6 -33 10 -80 10 l-80 0 0 70 0 70 90 0
c53 0 90 4 90 10 0 6 -42 10 -105 10 l-105 0 0 -180z"/>
<path d="M8600 919 c0 -87 4 -159 11 -170 14 -27 56 -42 96 -34 49 9 42 31 -7
27 -63 -6 -70 5 -70 119 l0 99 56 0 c73 0 70 24 -4 28 l-52 3 0 40 c0 28 -4
39 -15 39 -13 0 -15 -23 -15 -151z"/>
<path d="M5910 891 c0 -121 9 -147 55 -167 39 -16 134 -10 147 10 4 6 8 66 8
134 0 102 -2 122 -15 122 -13 0 -15 -21 -15 -126 l0 -125 -62 2 c-84 3 -90 13
-96 146 -3 56 -9 103 -13 103 -5 0 -9 -45 -9 -99z"/>
<path d="M6245 957 c-20 -20 -36 -48 -40 -70 -8 -42 2 -110 14 -102 5 2 8 -2
7 -11 0 -9 11 -25 26 -37 32 -24 119 -30 140 -9 11 11 3 13 -49 10 -34 -1 -60
-1 -58 1 2 1 -8 13 -22 25 -52 45 -37 174 24 197 15 6 45 8 66 6 26 -4 37 -2
34 6 -2 7 -27 13 -56 15 -48 3 -55 0 -86 -31z"/>
<path d="M6653 980 c-64 -26 -87 -160 -37 -219 32 -38 87 -56 133 -44 57 15
46 28 -19 25 -52 -3 -62 -1 -85 22 -16 16 -25 36 -25 56 l0 30 95 0 95 0 0 31
c0 83 -76 131 -157 99z m105 -37 c18 -18 26 -36 24 -50 -3 -22 -8 -23 -83 -23
-85 0 -93 6 -67 53 28 54 83 62 126 20z"/>
<path d="M6933 966 c-87 -73 -56 -231 50 -251 122 -23 195 149 102 242 -28 28
-40 33 -78 33 -33 0 -53 -6 -74 -24z m127 -16 c45 -45 52 -111 18 -171 -20
-37 -25 -39 -68 -39 -36 0 -52 5 -69 24 -45 48 -37 156 13 191 30 22 82 19
106 -5z"/>
<path d="M7677 958 c-58 -55 -59 -171 -1 -217 30 -24 89 -34 128 -23 50 14 40
27 -18 24 -30 -2 -64 2 -76 8 -20 11 -50 65 -50 90 0 6 38 10 101 10 l102 0
-6 43 c-13 93 -112 129 -180 65z m153 -63 c0 -25 -1 -25 -84 -25 -83 0 -83 0
-78 25 6 33 48 73 80 77 34 4 82 -41 82 -77z"/>
<path d="M8376 969 c-51 -40 -30 -87 54 -125 63 -28 78 -50 60 -84 -10 -19
-19 -21 -76 -18 -44 2 -64 -1 -64 -9 0 -15 71 -27 110 -18 31 7 70 47 70 72 0
22 -58 76 -75 69 -8 -3 -15 -2 -15 2 0 4 -14 15 -30 24 -21 12 -30 25 -30 42
0 34 32 50 86 43 43 -4 59 5 28 17 -34 13 -92 6 -118 -15z"/>
<path d="M8810 890 c0 -70 5 -110 15 -130 20 -38 72 -54 140 -43 l50 8 3 134
c2 104 0 132 -10 129 -9 -3 -14 -38 -16 -126 l-3 -122 -58 0 c-83 0 -92 12
-98 144 -3 59 -10 106 -14 106 -5 0 -9 -45 -9 -100z"/>
<path d="M9462 962 c-109 -102 -12 -294 120 -239 45 19 69 54 76 113 10 88
-44 154 -126 154 -30 0 -47 -7 -70 -28z m119 -2 c53 -29 66 -138 23 -189 -51
-61 -144 -31 -159 51 -18 98 60 178 136 138z"/>
<path d="M9770 983 c-43 -18 -57 -71 -27 -101 9 -8 40 -27 69 -41 38 -19 54
-33 56 -49 6 -40 -15 -54 -82 -51 -72 3 -89 -16 -22 -26 87 -13 147 28 132 89
-5 19 -23 34 -69 57 -81 41 -94 61 -60 94 13 13 28 16 65 13 33 -4 48 -2 45 6
-4 12 -83 19 -107 9z"/>
<path d="M7673 483 c-9 -3 -13 -27 -13 -71 l0 -67 -70 0 c-62 0 -72 -3 -97
-27 -21 -22 -27 -39 -31 -86 -5 -71 14 -114 60 -138 38 -20 136 -20 155 -1 19
19 14 396 -4 390z m-39 -163 c26 -9 26 -11 26 -115 l0 -105 -56 0 c-48 0 -59
4 -85 29 -26 26 -29 36 -29 91 0 51 4 65 25 85 26 27 73 33 119 15z"/>
<path d="M8625 440 c-34 -35 -26 -54 9 -21 l25 23 27 -21 c15 -12 29 -19 32
-16 6 6 -47 65 -58 65 -3 0 -19 -13 -35 -30z"/>
<path d="M5414 445 c-10 -24 5 -36 27 -24 16 8 18 13 8 25 -15 18 -28 18 -35
-1z"/>
<path d="M5853 444 c-7 -19 11 -39 26 -30 16 10 13 33 -4 40 -9 3 -18 -1 -22
-10z"/>
<path d="M8295 436 c-113 -49 -138 -235 -43 -323 30 -28 99 -45 146 -38 75 13
72 9 72 96 0 64 -3 79 -15 79 -12 0 -15 -15 -15 -76 l0 -76 -71 4 c-67 4 -73
6 -104 40 -60 65 -57 184 7 245 40 37 80 47 139 34 53 -12 74 2 28 18 -42 15
-107 13 -144 -3z"/>
<path d="M4380 260 c0 -153 2 -180 15 -180 12 0 15 17 15 90 l0 90 80 0 c47 0
80 4 80 10 0 6 -33 10 -80 10 l-80 0 0 70 0 70 90 0 c53 0 90 4 90 10 0 6 -42
10 -105 10 l-105 0 0 -180z"/>
<path d="M6214 415 c-3 -8 -4 -77 -2 -154 4 -166 11 -181 89 -181 26 0 51 5
54 11 11 16 2 19 -38 9 -33 -7 -39 -5 -57 17 -17 22 -20 41 -20 119 l0 94 55
0 c30 0 55 5 55 10 0 6 -25 10 -55 10 l-55 0 0 40 c0 39 -15 54 -26 25z"/>
<path d="M4733 353 c-31 -6 -79 -64 -87 -107 -8 -43 9 -115 29 -123 8 -3 13
-9 10 -13 -9 -15 52 -31 105 -28 84 5 71 23 -15 22 -41 -1 -73 1 -72 5 0 3 -4
15 -9 26 -6 11 -14 32 -18 48 l-6 27 95 0 c108 0 116 5 96 68 -17 54 -70 85
-128 75z m86 -49 c12 -15 21 -37 21 -50 0 -23 -3 -24 -78 -24 -43 0 -81 3 -85
6 -10 10 14 64 36 79 35 24 82 19 106 -11z"/>
<path d="M6028 350 c-38 -11 -60 -36 -60 -66 0 -32 8 -41 79 -78 41 -22 59
-38 61 -54 6 -40 -16 -54 -77 -52 -72 3 -77 2 -64 -11 15 -15 117 -13 142 3
26 16 38 72 20 94 -7 9 -38 27 -68 40 -31 14 -59 30 -63 37 -24 37 8 67 73 67
27 0 49 4 49 9 0 6 -8 9 -17 9 -10 0 -25 2 -33 5 -8 3 -27 2 -42 -3z"/>
<path d="M6468 352 c-46 -6 -31 -22 20 -22 59 0 79 -14 88 -63 l6 -38 -40 7
c-43 7 -103 -8 -122 -31 -7 -8 -12 -31 -12 -52 0 -57 28 -75 116 -71 l71 3 3
107 c2 99 1 108 -20 131 -24 26 -62 36 -110 29z m90 -138 c19 -6 22 -13 22
-60 l0 -54 -60 0 c-53 0 -61 3 -76 25 -37 57 31 111 114 89z"/>
<path d="M6748 351 c-59 -13 -85 -63 -55 -103 7 -9 38 -28 69 -41 64 -29 81
-57 52 -88 -14 -16 -30 -20 -69 -19 -68 2 -71 2 -58 -11 14 -14 106 -14 132 1
12 6 26 22 31 35 15 39 -8 70 -77 104 -51 25 -63 35 -63 55 0 36 23 48 80 44
27 -1 50 0 50 4 0 16 -54 28 -92 19z"/>
<path d="M7120 346 c-20 -6 -44 -25 -58 -46 -20 -30 -23 -44 -20 -99 4 -57 8
-67 37 -93 29 -26 38 -29 93 -26 84 4 86 23 2 23 -58 0 -67 3 -84 25 -11 14
-20 37 -20 53 l0 27 95 0 95 0 0 33 c0 26 -31 97 -42 97 -2 0 -17 4 -33 9 -20
5 -43 4 -65 -3z m90 -36 c11 -11 20 -33 20 -50 l0 -30 -80 0 c-79 0 -80 0 -80
25 0 63 95 100 140 55z"/>
<path d="M7865 353 c-53 -14 -95 -71 -95 -130 0 -98 47 -145 139 -141 30 2 56
8 58 15 3 8 -8 10 -36 6 -58 -8 -89 3 -111 40 -38 62 -32 67 80 67 l100 0 0
25 c0 14 -4 25 -10 25 -5 0 -7 6 -4 14 16 41 -63 93 -121 79z m78 -41 c9 -10
20 -33 23 -50 l7 -32 -88 0 -87 0 6 28 c15 62 102 95 139 54z"/>
<path d="M8620 342 c-52 -26 -74 -64 -74 -125 0 -59 24 -109 61 -126 26 -12
102 -15 127 -5 28 11 17 20 -19 16 -83 -10 -124 14 -139 81 l-6 27 100 0 c98
0 100 0 100 24 0 89 -77 145 -150 108z m100 -39 c11 -14 20 -36 20 -49 0 -23
-3 -24 -79 -24 -44 0 -82 3 -85 8 -7 12 22 72 39 78 8 3 13 9 11 13 -2 3 13 5
35 3 27 -3 45 -12 59 -29z"/>
<path d="M9260 350 c-8 -5 -18 -6 -22 -3 -15 9 -54 -24 -72 -60 -32 -69 -15
-156 39 -191 29 -19 136 -19 142 0 2 7 -16 9 -55 6 -56 -4 -60 -3 -85 28 -15
17 -27 42 -27 55 0 24 2 24 98 27 l97 3 -3 35 c-2 19 -11 46 -21 60 -21 30
-72 52 -91 40z m50 -30 c19 -10 43 -67 34 -81 -3 -5 -41 -9 -85 -9 -65 0 -79
3 -79 15 0 22 27 72 42 78 22 9 68 7 88 -3z"/>
<path d="M9730 347 c-48 -17 -80 -67 -80 -129 0 -88 42 -138 118 -138 78 0
122 50 122 137 0 99 -73 159 -160 130z m86 -25 c57 -39 60 -167 5 -209 -17
-13 -69 -17 -96 -7 -25 10 -45 59 -45 113 0 67 35 111 88 111 21 0 42 -4 48
-8z"/>
<path d="M4973 344 c-10 -4 -13 -41 -13 -135 0 -167 18 -173 22 -6 l3 122 51
3 c75 4 86 -12 92 -143 3 -58 9 -105 14 -105 5 0 8 48 6 115 -3 111 -2 114 20
125 27 12 82 13 100 2 20 -13 32 -71 32 -159 0 -49 4 -83 10 -83 6 0 10 43 10
109 0 95 -3 112 -21 135 -21 26 -25 27 -83 22 -73 -7 -82 -7 -166 -1 -36 2
-71 2 -77 -1z"/>
<path d="M5427 343 c-4 -3 -7 -64 -7 -135 0 -107 2 -128 15 -128 13 0 15 22
15 135 0 123 -4 147 -23 128z"/>
<path d="M5563 343 c-10 -3 -13 -40 -13 -134 0 -107 3 -129 15 -129 12 0 15
23 17 122 l3 123 50 2 c81 4 89 -7 93 -137 3 -90 7 -110 19 -110 12 0 14 17
11 111 -3 107 -4 112 -31 135 -23 20 -38 24 -90 23 -34 0 -68 -3 -74 -6z"/>
<path d="M5860 215 c0 -83 4 -135 10 -135 6 0 10 52 10 135 0 83 -4 135 -10
135 -6 0 -10 -52 -10 -135z"/>
<path d="M8873 343 c-10 -3 -13 -40 -13 -134 0 -108 2 -129 15 -129 13 0 15
21 15 125 l0 125 54 0 c47 0 57 -4 75 -26 18 -23 21 -41 21 -125 0 -81 3 -99
15 -99 12 0 15 17 15 89 0 147 -24 182 -127 180 -32 0 -64 -3 -70 -6z"/>
<path d="M9473 343 c-10 -3 -13 -40 -13 -134 0 -107 3 -129 15 -129 12 0 15
23 17 122 l3 123 53 3 c28 2 52 7 52 13 0 9 -105 12 -127 2z"/>
</g>
</svg>
